<svg xmlns="http://www.w3.org/2000/svg" width="1280" height="490" viewBox="0 0 1280 490" role="img" aria-labelledby="title desc">
<title id="title">aireward-llm — dual RTX 3090 workstation</title><desc id="desc">aireward-llm workstation with two NVIDIA GeForce RTX 3090 graphics cards, each with 24 GB GDDR6X dedicated memory. Intel Core i5-13500, 128 GB system RAM, and Samsung 990 PRO 2 TB NVMe. Dashed conceptual connection indicates the research goal of a hybrid cluster with two AMD Strix Halo nodes, not a verified operational link.</desc>
<rect width="1280" height="490" rx="18" fill="#0b1119"/>
<rect x="1" y="1" width="1278" height="488" rx="17" fill="none" stroke="#293543"/>
<path d="M 56 0 V 20" stroke="#fb923c" stroke-width="4"/>
<g font-family="Inter, -apple-system, BlinkMacSystemFont, 'Segoe UI', Arial, sans-serif">
<text x="56" y="58" font-size="30" fill="#f0f4f8" font-weight="650" letter-spacing=".6">AIREWARD-LLM</text>
<text x="56" y="89" font-size="18" fill="#aab6c3" font-weight="400" >Intel Core i5-13500 · 128 GB system RAM · Samsung 990 PRO 2 TB NVMe</text>
<text x="1224" y="57" font-size="13" fill="#aab6c3" font-weight="500" text-anchor="end" letter-spacing="1.2">DUAL NVIDIA GPU WORKSTATION</text>
<g transform="translate(56 116)"><rect width="560" height="194" rx="12" fill="#121c27" stroke="#334456"/><path d="M 0 28 V 68" stroke="#fb923c" stroke-width="3"/><text x="24" y="32" font-size="13" fill="#aab6c3" font-weight="500" letter-spacing="1.5">GPU 01</text><rect x="24" y="60" width="210" height="99" rx="10" fill="#202e39" stroke="#79919f"/><path d="M 19 51 V 169 H 27 M 19 80 H 11 M 19 145 H 11" fill="none" stroke="#79919f" stroke-width="3"/><path d="M 37 60 H 217" stroke="#9fbf62" stroke-width="3"/><circle cx="80" cy="110" r="36" fill="#0a1118" stroke="#68818d" stroke-width="1.5"/><circle cx="80" cy="110" r="30" fill="none" stroke="#243845"/><path d="M 87 105 Q 114 79 102 118 Q 95 123 87 113 Z" fill="#69808d" opacity=".8" transform="rotate(0 80 110)"/><path d="M 87 105 Q 114 79 102 118 Q 95 123 87 113 Z" fill="#69808d" opacity=".8" transform="rotate(60 80 110)"/><path d="M 87 105 Q 114 79 102 118 Q 95 123 87 113 Z" fill="#69808d" opacity=".8" transform="rotate(120 80 110)"/><path d="M 87 105 Q 114 79 102 118 Q 95 123 87 113 Z" fill="#69808d" opacity=".8" transform="rotate(180 80 110)"/><path d="M 87 105 Q 114 79 102 118 Q 95 123 87 113 Z" fill="#69808d" opacity=".8" transform="rotate(240 80 110)"/><path d="M 87 105 Q 114 79 102 118 Q 95 123 87 113 Z" fill="#69808d" opacity=".8" transform="rotate(300 80 110)"/><circle cx="80" cy="110" r="9" fill="#202f3c" stroke="#9fb4c0"/><circle cx="176" cy="110" r="36" fill="#0a1118" stroke="#68818d" stroke-width="1.5"/><circle cx="176" cy="110" r="30" fill="none" stroke="#243845"/><path d="M 183 105 Q 210 79 198 118 Q 191 123 183 113 Z" fill="#69808d" opacity=".8" transform="rotate(0 176 110)"/><path d="M 183 105 Q 210 79 198 118 Q 191 123 183 113 Z" fill="#69808d" opacity=".8" transform="rotate(60 176 110)"/><path d="M 183 105 Q 210 79 198 118 Q 191 123 183 113 Z" fill="#69808d" opacity=".8" transform="rotate(120 176 110)"/><path d="M 183 105 Q 210 79 198 118 Q 191 123 183 113 Z" fill="#69808d" opacity=".8" transform="rotate(180 176 110)"/><path d="M 183 105 Q 210 79 198 118 Q 191 123 183 113 Z" fill="#69808d" opacity=".8" transform="rotate(240 176 110)"/><path d="M 183 105 Q 210 79 198 118 Q 191 123 183 113 Z" fill="#69808d" opacity=".8" transform="rotate(300 176 110)"/><circle cx="176" cy="110" r="9" fill="#202f3c" stroke="#9fb4c0"/><rect x="113" y="159" width="4" height="9" rx="1" fill="#cba779"/><rect x="120" y="159" width="4" height="9" rx="1" fill="#cba779"/><rect x="127" y="159" width="4" height="9" rx="1" fill="#cba779"/><rect x="134" y="159" width="4" height="9" rx="1" fill="#cba779"/><rect x="141" y="159" width="4" height="9" rx="1" fill="#cba779"/><rect x="148" y="159" width="4" height="9" rx="1" fill="#cba779"/><rect x="155" y="159" width="4" height="9" rx="1" fill="#cba779"/><rect x="162" y="159" width="4" height="9" rx="1" fill="#cba779"/><rect x="169" y="159" width="4" height="9" rx="1" fill="#cba779"/><rect x="176" y="159" width="4" height="9" rx="1" fill="#cba779"/><text x="264" y="82" font-size="29" fill="#f0f4f8" font-weight="650" >RTX 3090</text><text x="264" y="120" font-size="23" fill="#88c7cc" font-weight="500" >24 GB GDDR6X</text><text x="264" y="151" font-size="16" fill="#aab6c3" font-weight="400" >NVIDIA Ampere · CUDA</text></g>
<g transform="translate(664 116)"><rect width="560" height="194" rx="12" fill="#121c27" stroke="#334456"/><path d="M 0 28 V 68" stroke="#fb923c" stroke-width="3"/><text x="24" y="32" font-size="13" fill="#aab6c3" font-weight="500" letter-spacing="1.5">GPU 02</text><rect x="24" y="60" width="210" height="99" rx="10" fill="#202e39" stroke="#79919f"/><path d="M 19 51 V 169 H 27 M 19 80 H 11 M 19 145 H 11" fill="none" stroke="#79919f" stroke-width="3"/><path d="M 37 60 H 217" stroke="#9fbf62" stroke-width="3"/><circle cx="80" cy="110" r="36" fill="#0a1118" stroke="#68818d" stroke-width="1.5"/><circle cx="80" cy="110" r="30" fill="none" stroke="#243845"/><path d="M 87 105 Q 114 79 102 118 Q 95 123 87 113 Z" fill="#69808d" opacity=".8" transform="rotate(0 80 110)"/><path d="M 87 105 Q 114 79 102 118 Q 95 123 87 113 Z" fill="#69808d" opacity=".8" transform="rotate(60 80 110)"/><path d="M 87 105 Q 114 79 102 118 Q 95 123 87 113 Z" fill="#69808d" opacity=".8" transform="rotate(120 80 110)"/><path d="M 87 105 Q 114 79 102 118 Q 95 123 87 113 Z" fill="#69808d" opacity=".8" transform="rotate(180 80 110)"/><path d="M 87 105 Q 114 79 102 118 Q 95 123 87 113 Z" fill="#69808d" opacity=".8" transform="rotate(240 80 110)"/><path d="M 87 105 Q 114 79 102 118 Q 95 123 87 113 Z" fill="#69808d" opacity=".8" transform="rotate(300 80 110)"/><circle cx="80" cy="110" r="9" fill="#202f3c" stroke="#9fb4c0"/><circle cx="176" cy="110" r="36" fill="#0a1118" stroke="#68818d" stroke-width="1.5"/><circle cx="176" cy="110" r="30" fill="none" stroke="#243845"/><path d="M 183 105 Q 210 79 198 118 Q 191 123 183 113 Z" fill="#69808d" opacity=".8" transform="rotate(0 176 110)"/><path d="M 183 105 Q 210 79 198 118 Q 191 123 183 113 Z" fill="#69808d" opacity=".8" transform="rotate(60 176 110)"/><path d="M 183 105 Q 210 79 198 118 Q 191 123 183 113 Z" fill="#69808d" opacity=".8" transform="rotate(120 176 110)"/><path d="M 183 105 Q 210 79 198 118 Q 191 123 183 113 Z" fill="#69808d" opacity=".8" transform="rotate(180 176 110)"/><path d="M 183 105 Q 210 79 198 118 Q 191 123 183 113 Z" fill="#69808d" opacity=".8" transform="rotate(240 176 110)"/><path d="M 183 105 Q 210 79 198 118 Q 191 123 183 113 Z" fill="#69808d" opacity=".8" transform="rotate(300 176 110)"/><circle cx="176" cy="110" r="9" fill="#202f3c" stroke="#9fb4c0"/><rect x="113" y="159" width="4" height="9" rx="1" fill="#cba779"/><rect x="120" y="159" width="4" height="9" rx="1" fill="#cba779"/><rect x="127" y="159" width="4" height="9" rx="1" fill="#cba779"/><rect x="134" y="159" width="4" height="9" rx="1" fill="#cba779"/><rect x="141" y="159" width="4" height="9" rx="1" fill="#cba779"/><rect x="148" y="159" width="4" height="9" rx="1" fill="#cba779"/><rect x="155" y="159" width="4" height="9" rx="1" fill="#cba779"/><rect x="162" y="159" width="4" height="9" rx="1" fill="#cba779"/><rect x="169" y="159" width="4" height="9" rx="1" fill="#cba779"/><rect x="176" y="159" width="4" height="9" rx="1" fill="#cba779"/><text x="264" y="82" font-size="29" fill="#f0f4f8" font-weight="650" >RTX 3090</text><text x="264" y="120" font-size="23" fill="#88c7cc" font-weight="500" >24 GB GDDR6X</text><text x="264" y="151" font-size="16" fill="#aab6c3" font-weight="400" >NVIDIA Ampere · CUDA</text></g>
<path d="M 56 344 H 1224" stroke="#293543"/>
<g transform="translate(56 367)"><text x="0" y="27" font-size="22" fill="#f0f4f8" font-weight="650" >TOWARD A HYBRID CLUSTER</text><text x="0" y="72" font-size="24" fill="#88c7cc" font-weight="500" >aireward-llm</text><text x="492" y="72" font-size="24" fill="#f0f4f8" font-weight="500" >2× Strix Halo</text><path d="M 191 65 H 468" stroke="#d69a68" stroke-width="2" stroke-dasharray="7 7"/><circle cx="191" cy="65" r="4" fill="#fb923c"/><circle cx="468" cy="65" r="4" fill="#fb923c"/><text x="1168" y="26" font-size="18" fill="#88c7cc" font-weight="500" text-anchor="end">NVIDIA + AMD</text><text x="1168" y="70" font-size="18" fill="#aab6c3" font-weight="400" text-anchor="end">Architecture under study</text></g>
</g></svg>
