<svg xmlns="http://www.w3.org/2000/svg" width="640" height="176" viewBox="0 0 640 176" role="img" aria-labelledby="stack-title stack-desc">
  <title id="stack-title">0xfunboy's technology stack</title>
  <desc id="stack-desc">Sixteen colorful technology icons in two rows: TypeScript, Go, Rust, Python, C++, Node.js, Vue, React, PyTorch, Linux, Bash, Git, MongoDB, PostgreSQL, Unreal Engine, Cloudflare.</desc>
  <!-- Technology artwork: Skill Icons by tandpfun, MIT License.
       Source: https://github.com/tandpfun/skill-icons/tree/7f7e691e71aec64e8354bf697835e009d1ad80f8/icons
       Copyright (c) 2022 tandpfun. See skill-icons-LICENSE.txt.
       Layout assembled for 0xfunboy; all icon geometry is embedded locally. -->
  <rect x="0.5" y="0.5" width="639" height="175" rx="18" fill="#0b1119" stroke="#263241"/>
  <path d="M24 88H616" stroke="#263241" stroke-opacity=".65"/>
  <path d="M24 88H60" stroke="#fb923c" stroke-width="2" stroke-linecap="round"/>
  <path d="M580 88H616" stroke="#67e8f9" stroke-width="2" stroke-linecap="round"/>
  <svg x="22" y="16" width="64" height="64" viewBox="0 0 256 256" fill="none" role="img" aria-labelledby="stack-icon-0">
    <title id="stack-icon-0">TypeScript</title>
    <rect width="256" height="256" fill="#007ACC" rx="60"/><path fill="#fff" d="M56.6112 128.849L56.5299 139.333H73.1902H89.8505L89.8505 186.673V234.012H101.635H113.419V186.673L113.419 139.333H130.079H146.739V129.052C146.739 123.363 146.618 118.609 146.455 118.487C146.333 118.325 126.056 118.243 101.472 118.284L56.7331 118.406L56.6112 128.849Z"/><path fill="#fff" d="M206.567 118.108C213.068 119.734 218.026 122.619 222.577 127.332C224.934 129.852 228.428 134.444 228.713 135.541C228.794 135.866 217.66 143.343 210.915 147.528C210.671 147.691 209.695 146.634 208.598 145.009C205.307 140.214 201.853 138.141 196.57 137.776C188.809 137.247 183.811 141.311 183.852 148.097C183.852 150.088 184.136 151.266 184.949 152.892C186.655 156.427 189.825 158.54 199.781 162.847C218.107 170.731 225.949 175.932 230.826 183.327C236.271 191.576 237.49 204.742 233.792 214.535C229.729 225.181 219.651 232.414 205.469 234.812C201.081 235.584 190.678 235.462 185.965 234.609C175.684 232.78 165.932 227.701 159.918 221.037C157.561 218.436 152.969 211.65 153.254 211.162C153.375 211 154.432 210.35 155.61 209.659C156.748 209.009 161.056 206.53 165.119 204.173L172.474 199.906L174.018 202.182C176.172 205.473 180.885 209.984 183.73 211.487C191.897 215.795 203.113 215.185 208.639 210.228C210.996 208.074 211.971 205.839 211.971 202.548C211.971 199.581 211.605 198.281 210.061 196.046C208.07 193.202 204.007 190.804 192.466 185.806C179.26 180.117 173.571 176.582 168.37 170.974C165.363 167.724 162.518 162.522 161.34 158.174C160.365 154.558 160.121 145.496 160.893 141.839C163.615 129.08 173.246 120.181 187.143 117.539C191.654 116.686 202.137 117.011 206.567 118.108Z"/>
  </svg>
  <svg x="98" y="16" width="64" height="64" viewBox="0 0 256 256" fill="none" role="img" aria-labelledby="stack-icon-1">
    <title id="stack-icon-1">Go</title>
    <rect width="256" height="256" fill="#00B4E0" rx="60"/><path fill="#fff" d="M40.5 113.234C40.1 113.234 40 113.034 40.2 112.734L42.3 110.034C42.5 109.734 43 109.534 43.4 109.534H79.1C79.5 109.534 79.6 109.834 79.4 110.134L77.7 112.734C77.5 113.034 77 113.334 76.7 113.334L40.5 113.234Z"/><path fill="#fff" d="M25.4 122.434C25 122.434 24.9 122.234 25.1 121.934L27.2 119.234C27.4 118.934 27.9 118.734 28.3 118.734H73.9C74.3 118.734 74.5 119.034 74.4 119.334L73.6 121.734C73.5 122.134 73.1 122.334 72.7 122.334L25.4 122.434Z"/><path fill="#fff" d="M49.6 131.634C49.2 131.634 49.1 131.334 49.3 131.034L50.7 128.534C50.9 128.234 51.3 127.934 51.7 127.934H71.7C72.1 127.934 72.3 128.234 72.3 128.634L72.1 131.034C72.1 131.434 71.7 131.734 71.4 131.734L49.6 131.634Z"/><path fill="#fff" d="M153.4 111.434C147.1 113.034 142.8 114.234 136.6 115.834C135.1 116.234 135 116.334 133.7 114.834C132.2 113.134 131.1 112.034 129 111.034C122.7 107.934 116.6 108.834 110.9 112.534C104.1 116.934 100.6 123.434 100.7 131.534C100.8 139.534 106.3 146.134 114.2 147.234C121 148.134 126.7 145.734 131.2 140.634C132.1 139.534 132.9 138.334 133.9 136.934C130.3 136.934 125.8 136.934 114.6 136.934C112.5 136.934 112 135.634 112.7 133.934C114 130.834 116.4 125.634 117.8 123.034C118.1 122.434 118.8 121.434 120.3 121.434C125.4 121.434 144.2 121.434 156.7 121.434C156.5 124.134 156.5 126.834 156.1 129.534C155 136.734 152.3 143.334 147.9 149.134C140.7 158.634 131.3 164.534 119.4 166.134C109.6 167.434 100.5 165.534 92.5 159.534C85.1 153.934 80.9 146.534 79.8 137.334C78.5 126.434 81.7 116.634 88.3 108.034C95.4 98.7343 104.8 92.8343 116.3 90.7343C125.7 89.0343 134.7 90.1343 142.8 95.6343C148.1 99.1343 151.9 103.934 154.4 109.734C155 110.634 154.6 111.134 153.4 111.434Z"/><path fill="#fff" d="M186.5 166.734C177.4 166.534 169.1 163.934 162.1 157.934C156.2 152.834 152.5 146.334 151.3 138.634C149.5 127.334 152.6 117.334 159.4 108.434C166.7 98.8343 175.5 93.8343 187.4 91.7343C197.6 89.9343 207.2 90.9343 215.9 96.8343C223.8 102.234 228.7 109.534 230 119.134C231.7 132.634 227.8 143.634 218.5 153.034C211.9 159.734 203.8 163.934 194.5 165.834C191.8 166.334 189.1 166.434 186.5 166.734ZM210.3 126.334C210.2 125.034 210.2 124.034 210 123.034C208.2 113.134 199.1 107.534 189.6 109.734C180.3 111.834 174.3 117.734 172.1 127.134C170.3 134.934 174.1 142.834 181.3 146.034C186.8 148.434 192.3 148.134 197.6 145.434C205.5 141.334 209.8 134.934 210.3 126.334Z"/>
  </svg>
  <svg x="174" y="16" width="64" height="64" viewBox="0 0 256 256" fill="none" role="img" aria-labelledby="stack-icon-2">
    <title id="stack-icon-2">Rust</title>
    <rect width="256" height="256" fill="#E43717" rx="60"/><path fill="#fff" d="M226.574 125.551L218.184 120.353C218.113 119.535 218.033 118.719 217.945 117.907L225.169 111.18C225.903 110.496 226.232 109.483 226.033 108.504C225.84 107.52 225.15 106.71 224.212 106.364L214.98 102.924C214.749 102.125 214.506 101.332 214.258 100.535L220.011 92.5468C220.598 91.7345 220.718 90.6777 220.336 89.7566C219.953 88.8335 219.118 88.1723 218.138 88.0098L208.409 86.4275C208.031 85.6898 207.637 84.9636 207.239 84.2488L211.33 75.2668C211.748 74.3533 211.662 73.2983 211.104 72.4575C210.548 71.6242 209.606 71.1369 208.6 71.1751L198.719 71.5191C198.209 70.8808 197.689 70.2483 197.159 69.6272L199.434 60.0144C199.663 59.0379 199.375 58.0078 198.664 57.3007C197.958 56.5936 196.934 56.3012 195.949 56.5305L186.336 58.8047C185.713 58.2772 185.08 57.7555 184.44 57.2453L184.786 47.365C184.824 46.3655 184.336 45.4157 183.503 44.8615C182.668 44.3034 181.611 44.2193 180.693 44.634L171.729 48.7238C171.005 48.3263 170.279 47.9326 169.551 47.5523L167.964 37.8249C167.804 36.8387 167.142 36.0017 166.217 35.6271C165.294 35.243 164.23 35.3672 163.427 35.952L155.438 41.7044C154.65 41.454 153.859 41.2132 153.068 40.9839L149.627 31.7534C149.277 30.8131 148.467 30.1232 147.487 29.9283C146.504 29.7353 145.499 30.0621 144.811 30.7921L138.083 38.016C137.271 37.9262 136.453 37.844 135.637 37.7771L130.438 29.3683C129.912 28.5179 128.981 28 127.972 28C126.963 28 126.042 28.5179 125.526 29.3683L120.327 37.7771C119.509 37.844 118.691 37.9262 117.881 38.016L111.153 30.7921C110.471 30.0621 109.458 29.7353 108.477 29.9283C107.493 30.1251 106.682 30.8131 106.336 31.7534L102.896 40.9839C102.097 41.2132 101.306 41.4559 100.526 41.7044L92.5368 35.952C91.7245 35.3653 90.6657 35.2411 89.7463 35.6271C88.8232 36.0093 88.16 36.8464 87.9994 37.8249L86.413 47.5523C85.6791 47.9326 84.9528 48.3243 84.2342 48.7238L75.2702 44.634C74.3585 44.2174 73.3016 44.3034 72.4606 44.8615C71.6273 45.4157 71.1399 46.3655 71.1781 47.365L71.5221 57.2453C70.8838 57.7555 70.2511 58.2772 69.6261 58.8047L60.0123 56.5305C59.0356 56.3031 58.0054 56.5936 57.2983 57.3007C56.5873 58.0097 56.2987 59.0321 56.528 60.0144L58.7833 69.6272C58.2577 70.2502 57.7379 70.8808 57.2275 71.5191L47.3461 71.1751C46.3504 71.1465 45.3966 71.6242 44.8423 72.4575C44.2842 73.2869 44.2002 74.3494 44.6149 75.2668L48.7051 84.2488C48.3075 84.9693 47.9138 85.6955 47.5335 86.4275L37.805 88.0098C36.8168 88.1704 35.9835 88.8316 35.607 89.7566C35.2247 90.6835 35.3489 91.7441 35.9319 92.5468L41.6849 100.535C41.4345 101.324 41.1918 102.117 40.9624 102.924L31.7309 106.364C30.7943 106.714 30.1043 107.524 29.9094 108.504C29.7144 109.487 30.0413 110.492 30.7733 111.18L37.998 117.907C37.9082 118.719 37.8279 119.537 37.7591 120.353L29.3685 125.551C28.518 126.077 28 127.005 28 128.016C28 129.027 28.518 129.947 29.3685 130.463L37.7591 135.661C37.8279 136.479 37.9082 137.295 37.998 138.107L30.7733 144.834C30.0413 145.516 29.7144 146.529 29.9094 147.509C30.1043 148.494 30.7943 149.302 31.7309 149.65L40.9624 153.09C41.1918 153.889 41.4345 154.682 41.6849 155.479L35.9319 163.467C35.347 164.281 35.2228 165.338 35.607 166.257C35.9911 167.184 36.8264 167.845 37.8241 168.004L47.5526 169.586C47.9329 170.324 48.3228 171.05 48.7242 171.765L44.634 180.728C44.2174 181.639 44.3034 182.696 44.8615 183.537C45.4196 184.372 46.3695 184.86 47.3653 184.819L57.2275 184.474C57.7417 185.116 58.2597 185.744 58.7872 186.369L56.5318 195.982C56.3025 196.957 56.5911 197.97 57.3021 198.677C58.0074 199.39 59.0337 199.674 60.0161 199.445L69.63 197.19C70.2549 197.721 70.8876 198.237 71.526 198.746L71.1819 208.626C71.1437 209.625 71.6311 210.575 72.4644 211.129C73.2939 211.685 74.3566 211.77 75.274 211.353L84.238 207.263C84.9605 207.665 85.6868 208.054 86.4169 208.435L88.0032 218.162C88.1638 219.152 88.8251 219.989 89.7502 220.379C90.6733 220.763 91.7379 220.639 92.5407 220.056L100.53 214.304C101.319 214.554 102.112 214.799 102.919 215.028L106.359 224.258C106.709 225.195 107.519 225.889 108.5 226.08C109.482 226.278 110.488 225.95 111.176 225.216L117.904 217.992C118.716 218.086 119.534 218.164 120.35 218.237L125.549 226.626C126.072 227.473 127.003 227.995 127.995 227.995C128.987 227.995 129.926 227.475 130.461 226.626L135.66 218.237C136.478 218.164 137.294 218.086 138.106 217.992L144.834 225.216C145.516 225.95 146.529 226.278 147.51 226.08C148.494 225.887 149.304 225.195 149.65 224.258L153.091 215.028C153.889 214.799 154.683 214.554 155.48 214.304L163.469 220.056C164.281 220.639 165.34 220.763 166.259 220.379C167.184 219.999 167.846 219.16 168.006 218.162L169.593 208.435C170.327 208.054 171.053 207.659 171.772 207.263L180.736 211.353C181.647 211.77 182.704 211.685 183.545 211.129C184.378 210.571 184.864 209.625 184.828 208.626L184.484 198.746C185.122 198.235 185.755 197.721 186.378 197.19L195.991 199.445C196.968 199.674 197.998 199.39 198.706 198.677C199.417 197.968 199.705 196.949 199.476 195.982L197.22 186.369C197.748 185.744 198.268 185.116 198.776 184.474L208.658 184.819C209.653 184.86 210.607 184.372 211.161 183.537C211.72 182.704 211.806 181.643 211.387 180.728L207.297 171.765C207.696 171.041 208.088 170.314 208.467 169.586L218.195 168.004C219.185 167.845 220.018 167.184 220.393 166.257C220.775 165.334 220.655 164.27 220.068 163.467L214.315 155.479C214.564 154.689 214.806 153.896 215.038 153.09L224.269 149.65C225.208 149.298 225.899 148.49 226.091 147.509C226.289 146.527 225.961 145.522 225.227 144.834L218.002 138.107C218.09 137.295 218.17 136.477 218.241 135.661L226.632 130.463C227.482 129.939 228 129.008 228 128.016C228 127.025 227.484 126.086 226.633 125.551H226.574ZM170.382 195.306C167.171 194.614 165.145 191.445 165.833 188.235C166.519 185.024 169.675 182.979 172.886 183.667C176.097 184.353 178.142 187.527 177.454 190.738C176.766 193.949 173.612 195.994 170.401 195.306H170.382ZM167.534 176.004C164.61 175.377 161.724 177.238 161.112 180.17L158.131 194.082C148.937 198.249 138.635 200.58 127.932 200.58C116.923 200.58 106.526 198.153 97.1603 193.796L94.1786 179.883C93.5517 176.959 90.681 175.086 87.7567 175.717L75.467 178.354C73.1926 176.004 71.0711 173.5 69.1215 170.863H128.945C129.622 170.863 130.073 170.741 130.073 170.125V148.912C130.073 148.297 129.622 148.175 128.945 148.175H111.457V134.778H130.359C132.085 134.778 139.591 135.271 141.98 144.868C142.731 147.811 144.388 157.405 145.516 160.482C146.64 163.922 151.212 170.802 156.086 170.802H185.902C186.24 170.802 186.601 170.763 186.982 170.695C184.917 173.504 182.643 176.16 180.216 178.645L167.639 175.95L167.534 176.004ZM84.7751 195.019C81.5641 195.711 78.4104 193.666 77.7224 190.451C77.0362 187.241 79.0756 184.068 82.2904 183.38C85.5014 182.694 88.655 184.739 89.3431 187.948C90.0292 191.159 87.988 194.331 84.7751 195.019ZM62.0306 103.096C63.3609 106.096 62.0077 109.613 59.0108 110.95C56.0101 112.282 52.5124 110.928 51.1745 107.931C49.8366 104.934 51.1974 101.414 54.1943 100.076C57.1951 98.7463 60.6927 100.099 62.0306 103.096ZM55.0544 119.608L67.8601 113.913C70.5932 112.699 71.8356 109.498 70.6124 106.765L67.9748 100.803H78.334V147.433H57.5009C55.687 141.05 54.7104 134.323 54.7104 127.367C54.7104 124.71 54.8537 122.092 55.1289 119.512L55.0544 119.608ZM111.247 115.078V101.319H135.902C137.177 101.319 144.904 102.792 144.904 108.562C144.904 113.358 138.979 115.078 134.106 115.078H111.17H111.247ZM200.886 127.462C200.886 129.289 200.819 131.093 200.686 132.89H193.174C192.423 132.89 192.121 133.383 192.121 134.118V137.558C192.121 145.661 187.553 147.439 183.539 147.878C179.717 148.308 175.493 146.281 174.977 143.941C172.721 131.271 168.975 128.576 163.05 123.875C170.409 119.212 178.054 112.313 178.054 103.044C178.054 93.0876 171.231 86.8192 166.586 83.7424C160.05 79.4425 152.825 78.5825 150.875 78.5825H73.2767C83.8079 66.8485 98.1236 58.5161 114.178 55.4584L123.334 65.052C125.398 67.2116 128.819 67.3071 130.998 65.2279L141.242 55.4431C162.649 59.4373 180.806 72.7766 191.318 91.1803L184.304 107.004C183.094 109.737 184.329 112.948 187.056 114.152L200.55 120.152C200.783 122.541 200.905 124.968 200.905 127.414L200.886 127.462ZM123.288 47.3879C125.658 45.1137 129.423 45.2093 131.678 47.5809C133.934 49.9507 133.857 53.7155 131.481 55.9897C129.111 58.2639 125.346 58.1683 123.091 55.7948C120.836 53.425 120.912 49.6602 123.288 47.386V47.3879ZM192.859 103.383C194.187 100.382 197.694 99.0253 200.695 100.363C203.696 101.693 205.053 105.217 203.715 108.218C202.387 111.218 198.879 112.575 195.879 111.237C192.878 109.907 191.521 106.383 192.859 103.383Z"/>
  </svg>
  <svg x="250" y="16" width="64" height="64" viewBox="0 0 256 256" fill="none" role="img" aria-labelledby="stack-icon-3">
    <title id="stack-icon-3">Python</title>
    <rect width="256" height="256" fill="#242938" rx="60"/><path fill="url(#stack-3-paint0_linear_2_47)" d="M127.279 29C76.5066 29 79.6772 51.018 79.6772 51.018L79.7338 73.8284H128.185V80.6772H60.4893C60.4893 80.6772 28 76.9926 28 128.222C28 179.452 56.3573 177.636 56.3573 177.636H73.2812V153.863C73.2812 153.863 72.369 125.506 101.186 125.506H149.24C149.24 125.506 176.239 125.942 176.239 99.4123V55.5461C176.239 55.5461 180.338 29 127.279 29ZM100.563 44.339C105.384 44.339 109.28 48.2351 109.28 53.0556C109.28 57.8761 105.384 61.7723 100.563 61.7723C95.7426 61.7723 91.8465 57.8761 91.8465 53.0556C91.8465 48.2351 95.7426 44.339 100.563 44.339Z"/><path fill="url(#stack-3-paint1_linear_2_47)" d="M128.721 227.958C179.493 227.958 176.323 205.941 176.323 205.941L176.266 183.13H127.815V176.281H195.511C195.511 176.281 228 179.966 228 128.736C228 77.5062 199.643 79.323 199.643 79.323H182.719V103.096C182.719 103.096 183.631 131.453 154.814 131.453H106.76C106.76 131.453 79.7607 131.016 79.7607 157.546V201.412C79.7607 201.412 75.6615 227.958 128.721 227.958ZM155.437 212.619C150.616 212.619 146.72 208.723 146.72 203.903C146.72 199.082 150.616 195.186 155.437 195.186C160.257 195.186 164.154 199.082 164.154 203.903C164.154 208.723 160.257 212.619 155.437 212.619Z"/><defs><linearGradient id="stack-3-paint0_linear_2_47" x1="47.22" x2="146.333" y1="46.896" y2="145.02" gradientUnits="userSpaceOnUse"><stop stop-color="#387EB8"/><stop offset="1" stop-color="#366994"/></linearGradient><linearGradient id="stack-3-paint1_linear_2_47" x1="108.056" x2="214.492" y1="109.905" y2="210.522" gradientUnits="userSpaceOnUse"><stop stop-color="#FFE052"/><stop offset="1" stop-color="#FFC331"/></linearGradient></defs>
  </svg>
  <svg x="326" y="16" width="64" height="64" viewBox="0 0 256 256" fill="none" role="img" aria-labelledby="stack-icon-4">
    <title id="stack-icon-4">C++</title>
    <rect width="256" height="256" fill="#00599C" rx="60"/><path fill="#fff" d="M110.759 210.517C65.1254 210.517 28 173.392 28 127.759C28 82.1254 65.1254 45 110.759 45C140.204 45 167.667 60.8458 182.427 86.3533L146.611 107.079C139.224 94.3111 125.485 86.3793 110.759 86.3793C87.9416 86.3793 69.3793 104.942 69.3793 127.759C69.3793 150.575 87.9416 169.138 110.759 169.138C125.486 169.138 139.225 161.206 146.613 148.436L182.429 169.161C167.669 194.671 140.206 210.517 110.759 210.517Z"/><path fill="#fff" d="M193.517 123.161H184.321V113.965H175.127V123.161H165.931V132.356H175.127V141.552H184.321V132.356H193.517V123.161Z"/><path fill="#fff" d="M228 123.161H218.804V113.965H209.61V123.161H200.414V132.356H209.61V141.552H218.804V132.356H228V123.161Z"/>
  </svg>
  <svg x="402" y="16" width="64" height="64" viewBox="0 0 256 256" fill="none" role="img" aria-labelledby="stack-icon-5">
    <title id="stack-icon-5">Node.js</title>
    <rect width="256" height="256" fill="#242938" rx="60"/><path fill="#81CD39" d="M119.878 31.1164C124.797 28.3008 131.203 28.2883 136.117 31.1164C160.839 45.0855 185.569 59.0332 210.287 73.0108C214.937 75.6296 218.046 80.8038 217.999 86.1608V170.206C218.034 175.785 214.617 181.083 209.712 183.642C185.071 197.535 160.442 211.444 135.805 225.337C130.786 228.207 124.251 227.986 119.387 224.88C112 220.598 104.6 216.336 97.2121 212.058C95.7022 211.158 94.0004 210.442 92.9345 208.978C93.8766 207.708 95.5618 207.55 96.9309 206.995C100.014 206.014 102.847 204.44 105.679 202.913C106.396 202.423 107.27 202.611 107.957 203.049C114.274 206.671 120.536 210.399 126.874 213.986C128.226 214.767 129.595 213.73 130.751 213.086C154.931 199.419 179.141 185.805 203.318 172.134C204.214 171.703 204.709 170.752 204.636 169.771C204.653 142.046 204.64 114.317 204.645 86.5918C204.747 85.4785 204.103 84.455 203.096 83.999C178.541 70.1702 153.997 56.3205 129.446 42.4882C128.575 41.8893 127.426 41.8878 126.554 42.4837C102.002 56.3205 77.4638 70.1832 52.9124 84.011C51.9092 84.4675 51.236 85.4745 51.3554 86.5918C51.3596 114.317 51.3554 142.046 51.3554 169.775C51.2682 170.756 51.801 171.687 52.6906 172.109C59.2422 175.824 65.8024 179.513 72.3582 183.216C76.0516 185.203 80.5863 186.385 84.6555 184.862C88.2463 183.574 90.7633 179.909 90.6948 176.097C90.7288 148.534 90.6778 120.967 90.7203 93.4078C90.6309 92.1841 91.7912 91.1731 92.981 91.2885C96.1292 91.267 99.281 91.2461 102.429 91.297C103.743 91.267 104.647 92.5847 104.485 93.8174C104.472 121.555 104.519 149.293 104.464 177.03C104.472 184.423 101.435 192.467 94.5973 196.084C86.1737 200.447 75.7619 199.522 67.4399 195.338C60.2355 191.742 53.3603 187.498 46.2838 183.646C41.3661 181.101 37.966 175.782 38.0006 170.207V86.1608C37.949 80.6929 41.1825 75.4248 45.9764 72.8445C70.6133 58.9408 95.2461 45.0261 119.878 31.1164Z"/><path fill="#81CD39" d="M141.372 89.3351C152.117 88.6433 163.62 88.9255 173.289 94.2185C180.776 98.2754 184.926 106.789 185.058 115.106C184.849 116.227 183.676 116.846 182.605 116.769C179.488 116.765 176.369 116.812 173.252 116.748C171.929 116.799 171.161 115.58 170.995 114.411C170.099 110.431 167.928 106.49 164.183 104.57C158.433 101.692 151.767 101.837 145.497 101.897C140.92 102.139 135.998 102.536 132.12 105.227C129.143 107.266 128.239 111.382 129.301 114.697C130.303 117.077 133.05 117.845 135.299 118.553C148.248 121.94 161.97 121.602 174.672 126.059C179.931 127.876 185.075 131.409 186.875 136.915C189.23 144.295 188.198 153.115 182.947 159.039C178.689 163.914 172.488 166.568 166.303 168.009C158.075 169.844 149.536 169.891 141.18 169.076C133.323 168.18 125.146 166.116 119.081 160.763C113.894 156.259 111.361 149.241 111.612 142.469C111.672 141.325 112.811 140.527 113.907 140.621C117.046 140.596 120.186 140.587 123.325 140.626C124.58 140.536 125.509 141.62 125.574 142.802C126.152 146.593 127.577 150.573 130.884 152.82C137.264 156.937 145.271 156.655 152.577 156.77C158.63 156.502 165.425 156.421 170.364 152.42C172.97 150.138 173.742 146.32 173.038 143.036C172.275 140.263 169.374 138.971 166.883 138.126C154.1 134.083 140.224 135.55 127.565 130.977C122.425 129.161 117.455 125.727 115.481 120.447C112.726 112.974 113.988 103.73 119.789 98.0061C125.445 92.312 133.609 90.1192 141.372 89.3346V89.3351"/>
  </svg>
  <svg x="478" y="16" width="64" height="64" viewBox="0 0 256 256" fill="none" role="img" aria-labelledby="stack-icon-6">
    <title id="stack-icon-6">Vue</title>
    <rect width="256" height="256" fill="#242938" rx="60"/><path fill="#41B883" d="M182 50H218L128 205.25L38 50H73.55H106.85L128 86L148.7 50H182Z"/><path fill="#41B883" d="M38 50L128 205.25L218 50H182L128 143.15L73.55 50H38Z"/><path fill="#fff" d="M73.55 50L128 143.6L182 50H148.7L128 86L106.85 50H73.55Z"/>
  </svg>
  <svg x="554" y="16" width="64" height="64" viewBox="0 0 256 256" fill="none" role="img" aria-labelledby="stack-icon-7">
    <title id="stack-icon-7">React</title>
    <rect width="256" height="256" fill="#242938" rx="60"/><path fill="#00D8FF" d="M128.001 146.951C138.305 146.951 146.657 138.598 146.657 128.295C146.657 117.992 138.305 109.639 128.001 109.639C117.698 109.639 109.345 117.992 109.345 128.295C109.345 138.598 117.698 146.951 128.001 146.951Z"/><path fill-rule="evenodd" stroke="#00D8FF" stroke-width="8.911" d="M128.002 90.3633C153.05 90.3633 176.319 93.9575 193.864 99.9976C215.003 107.275 228 118.306 228 128.295C228 138.704 214.226 150.423 191.525 157.944C174.363 163.63 151.779 166.598 128.002 166.598C103.624 166.598 80.5389 163.812 63.1834 157.881C41.2255 150.376 28 138.506 28 128.295C28 118.387 40.4096 107.441 61.2515 100.175C78.8617 94.0353 102.705 90.3633 127.998 90.3633H128.002Z" clip-rule="evenodd"/><path fill-rule="evenodd" stroke="#00D8FF" stroke-width="8.911" d="M94.9811 109.438C107.495 87.7402 122.232 69.3783 136.23 57.1971C153.094 42.5206 169.144 36.7728 177.796 41.7623C186.813 46.9623 190.084 64.7496 185.259 88.1712C181.614 105.879 172.9 126.925 161.021 147.523C148.842 168.641 134.897 187.247 121.09 199.315C103.619 214.587 86.7284 220.114 77.8833 215.013C69.3003 210.067 66.0181 193.846 70.1356 172.161C73.6145 153.838 82.3451 131.349 94.977 109.438L94.9811 109.438Z" clip-rule="evenodd"/><path fill-rule="evenodd" stroke="#00D8FF" stroke-width="8.911" d="M95.0123 147.578C82.4633 125.904 73.9194 103.962 70.3531 85.7517C66.0602 63.8109 69.0954 47.0355 77.7401 42.0315C86.7485 36.8163 103.792 42.866 121.674 58.7437C135.194 70.7479 149.077 88.8052 160.99 109.383C173.204 130.481 182.358 151.856 185.919 169.844C190.425 192.608 186.778 210.001 177.941 215.116C169.367 220.08 153.676 214.825 136.945 200.427C122.809 188.263 107.685 169.468 95.0123 147.578Z" clip-rule="evenodd"/>
  </svg>
  <svg x="22" y="96" width="64" height="64" viewBox="0 0 256 256" fill="none" role="img" aria-labelledby="stack-icon-8">
    <title id="stack-icon-8">PyTorch</title>
    
<rect width="256" height="256" rx="60" fill="#242938"/>
<path d="M180.975 90.4153L167.567 103.824C189.508 125.765 189.508 161.115 167.567 182.65C145.625 204.591 110.275 204.591 88.7404 182.65C66.7991 160.709 66.7991 125.359 88.7404 103.824L123.481 69.0835L128.357 64.2077V38L75.9413 90.4153C46.6862 119.67 46.6862 166.804 75.9413 196.059C105.196 225.314 152.33 225.314 180.975 196.059C210.23 166.6 210.23 119.67 180.975 90.4153Z" fill="#EE4C2C"/>
<path d="M154.77 87.1705C160.156 87.1705 164.522 82.8045 164.522 77.4188C164.522 72.0331 160.156 67.667 154.77 67.667C149.385 67.667 145.019 72.0331 145.019 77.4188C145.019 82.8045 149.385 87.1705 154.77 87.1705Z" fill="#EE4C2C"/>

  </svg>
  <svg x="98" y="96" width="64" height="64" viewBox="0 0 256 256" fill="none" role="img" aria-labelledby="stack-icon-9">
    <title id="stack-icon-9">Linux</title>
    <rect width="256" height="256" fill="#242938" rx="60"/><path fill="#ECEFF1" d="M85.9493 199.926L110.48 213.546H147.576L182.278 187.491L197.834 146.632L161.935 103.405L151.764 79.1268L102.104 80.9032L102.702 94.5228L93.1291 112.287L78.1713 141.303L75.1797 165.581L85.9493 199.926Z"/><path fill="#263238" d="M187.064 114.656C177.491 101.036 169.713 92.7463 165.525 75.5738C161.337 58.4013 166.722 63.1386 163.132 48.3347C161.337 40.6367 158.345 35.3073 155.354 31.1622C151.764 27.0171 147.576 24.6485 145.182 24.0563C139.798 21.0956 127.233 16.3583 111.677 24.6485C95.5223 32.9387 97.3172 50.7033 100.309 86.8248C100.309 89.1934 99.7105 92.1542 98.5139 94.5228C96.1206 99.8522 91.9324 104.589 88.3425 108.735C84.1543 114.656 79.9661 120.578 76.9746 127.091C69.7948 140.711 63.2134 157.883 65.0083 164.397C67.9999 163.805 105.694 220.652 105.694 221.836C108.087 221.244 118.258 221.244 127.233 221.244C139.798 220.652 146.977 220.06 157.149 222.428C157.149 220.652 156.55 218.875 156.55 217.099C156.55 213.546 157.149 210.585 157.747 206.44C158.345 203.479 158.944 200.519 159.542 196.966C153.559 202.295 142.789 208.217 132.618 209.993C123.643 211.769 108.685 208.809 101.505 199.926C102.104 199.926 103.3 199.926 103.899 199.334C105.694 198.742 107.489 198.15 108.087 196.966C109.882 194.005 108.685 191.044 107.489 189.268C106.292 187.491 97.3173 180.977 93.1291 177.425C88.9409 173.872 86.5476 172.095 84.1544 169.727C84.1544 169.727 80.5645 166.174 79.3678 164.989C78.1712 163.805 77.5729 162.621 76.9746 162.028C75.778 159.068 75.1796 155.515 75.778 150.778C76.3763 144.264 78.7695 138.934 81.7611 133.013C82.9577 130.644 85.9493 125.907 85.9493 125.907C85.9493 125.907 75.778 150.778 81.1628 158.476C81.1628 158.476 81.7611 150.778 84.1544 143.08C85.9493 137.75 88.9409 130.052 92.5307 125.907C96.1206 121.762 105.095 106.366 105.694 96.8914C105.694 92.7463 106.292 88.6012 106.292 85.6405C103.899 83.2718 145.781 77.3503 148.174 83.864C148.772 86.2326 157.149 107.55 161.935 118.801C164.328 124.131 167.32 128.868 169.115 134.789C170.91 141.303 172.106 150.185 172.106 159.068C172.106 160.844 172.106 163.805 171.508 166.766C172.705 166.766 196.039 141.895 168.517 121.17C168.517 121.17 185.269 128.868 185.868 144.264C186.466 156.699 181.081 166.766 179.885 168.542C180.483 168.542 192.449 173.872 193.047 173.872C195.441 173.872 200.227 172.095 200.227 172.095C200.826 170.319 202.62 165.581 202.62 163.805C206.809 150.185 196.637 128.276 187.064 114.656V114.656Z"/><path fill="#ECEFF1" d="M111.078 75.5738C115.374 75.5738 118.856 70.2714 118.856 63.7307C118.856 57.1899 115.374 51.8876 111.078 51.8876C106.783 51.8876 103.3 57.1899 103.3 63.7307C103.3 70.2714 106.783 75.5738 111.078 75.5738Z"/><path fill="#ECEFF1" d="M138.002 76.7581C143.62 76.7581 148.174 70.6604 148.174 63.1386C148.174 55.6167 143.62 49.519 138.002 49.519C132.385 49.519 127.831 55.6167 127.831 63.1386C127.831 70.6604 132.385 76.7581 138.002 76.7581Z"/><path fill="#212121" d="M115.424 64.5411C114.927 60.6476 112.663 57.7241 110.368 58.0111C108.074 58.2982 106.616 61.6872 107.114 65.5807C107.611 69.4741 109.874 72.3977 112.169 72.1106C114.464 71.8235 115.921 68.4345 115.424 64.5411Z"/><path fill="#212121" d="M137.404 73.2052C140.709 73.2052 143.387 69.7587 143.387 65.5072C143.387 61.2557 140.709 57.8091 137.404 57.8091C134.1 57.8091 131.421 61.2557 131.421 65.5072C131.421 69.7587 134.1 73.2052 137.404 73.2052Z"/><path fill="#FFC107" d="M216.98 195.781C214.587 194.597 210.398 192.82 206.808 187.491C205.014 184.53 205.612 176.24 202.62 172.687C200.825 170.319 198.432 171.503 197.834 171.503C192.449 172.687 179.884 180.977 171.508 171.503C170.311 170.319 168.516 168.542 165.525 168.542C162.533 168.542 161.337 169.726 160.14 172.095C158.943 174.464 158.943 176.24 158.943 182.162C158.943 186.899 158.943 192.228 158.345 196.373C157.148 206.44 155.354 212.362 155.354 218.283C155.354 224.797 157.148 228.942 159.542 230.718C161.337 232.495 164.328 233.679 170.91 233.679C177.491 233.679 181.679 231.311 185.868 227.165C188.859 224.205 191.252 223.02 199.629 217.099C206.21 212.954 216.382 207.624 218.176 205.848C219.373 204.664 221.168 204.071 221.168 200.518C221.168 197.558 218.775 196.373 216.98 195.781V195.781Z"/><path fill="#FFC107" d="M96.7189 197.558C90.7357 188.083 90.1374 186.307 85.9492 180.385C82.3593 174.464 74.5813 163.213 69.7948 163.213C66.2049 163.213 64.4099 164.989 62.0167 167.358C59.6234 169.726 57.2302 175.056 53.042 178.017C49.4521 180.977 39.2808 180.385 36.8875 183.938C34.4942 187.491 39.2808 192.821 39.2808 201.703C39.2808 205.256 36.2892 207.624 35.6909 209.993C35.0926 212.954 34.4942 214.73 35.6909 217.099C38.0841 220.652 41.0757 221.836 61.4184 225.981C72.188 228.35 82.3593 234.271 88.9408 234.864C95.5222 235.456 106.89 234.864 106.89 218.875C107.489 209.401 102.104 207.032 96.7189 197.558Z"/><path fill="#FFC107" d="M108.087 90.3777C104.497 88.0091 101.505 85.6404 101.505 82.0875C101.505 78.5346 103.899 77.3503 107.489 74.3895C108.087 73.7973 114.668 67.8758 121.25 67.8758C127.831 67.8758 135.609 72.0209 138.601 73.2052C143.986 74.3895 149.37 75.5738 148.772 79.7189C148.174 85.6404 147.576 86.8248 141.592 89.7855C137.404 90.9698 129.626 97.4835 124.241 97.4835C121.848 97.4835 118.258 97.4835 115.865 96.8914C114.07 96.2992 111.078 93.3385 108.087 90.3777V90.3777Z"/><path fill="#634703" d="M106.89 85.6405C108.087 86.8248 109.882 88.0091 111.677 88.6012C112.873 89.1934 114.668 89.7856 114.668 89.7856C117.062 89.7856 118.857 89.7856 120.053 89.7856C123.045 89.7856 127.233 88.6013 131.421 86.2326C135.609 84.4562 136.208 83.2718 139.199 82.0875C142.191 80.3111 145.182 78.5346 143.986 77.9425C142.789 77.3503 141.592 77.9425 137.404 80.3111C133.814 82.6797 130.823 83.864 127.233 85.6405C125.438 86.2326 123.045 87.4169 121.25 87.4169C119.455 87.4169 117.66 87.4169 115.865 87.4169C114.07 87.4169 112.873 86.8248 111.078 86.2326C109.882 85.6405 109.283 85.0483 108.685 85.0483C107.489 84.4562 105.095 82.0875 103.899 81.4954C103.899 81.4954 102.702 81.4954 103.3 82.0875C105.095 83.864 105.694 84.4562 106.89 85.6405Z"/><path fill="#634703" d="M124.84 72.613C125.438 73.7973 126.635 73.7973 127.233 74.3895C127.831 74.9816 128.429 74.9816 128.429 74.9816C129.028 74.3895 128.429 73.2052 127.831 73.2052C127.831 72.0209 124.84 72.0209 124.84 72.613V72.613Z"/><path fill="#634703" d="M115.267 73.7973C115.267 74.3895 116.463 74.9816 116.463 74.3895C117.062 73.7973 117.66 73.2052 118.258 73.2052C119.455 72.613 118.856 72.0209 117.062 72.0209C115.865 72.613 115.865 73.2052 115.267 73.7973V73.7973Z"/><path fill="#455A64" d="M173.303 178.609C173.303 179.201 173.303 179.793 173.303 180.385C174.5 182.754 177.491 183.346 179.884 183.346C183.474 183.346 187.064 180.977 188.859 178.609C188.859 178.017 189.457 177.424 190.056 176.832C191.252 175.056 191.851 173.872 192.449 173.279C192.449 173.279 191.851 172.687 191.851 172.095C191.252 170.911 189.457 169.726 187.064 169.134C185.269 168.542 182.278 167.95 181.081 167.95C175.696 167.358 172.705 169.134 170.91 170.911C170.91 170.911 171.508 170.911 171.508 171.503C172.705 172.687 173.303 173.872 173.303 175.648C173.901 176.832 173.303 177.424 173.303 178.609V178.609Z"/>
  </svg>
  <svg x="174" y="96" width="64" height="64" viewBox="0 0 256 256" fill="none" role="img" aria-labelledby="stack-icon-10">
    <title id="stack-icon-10">Bash</title>
    <rect width="256" height="256" fill="#242938" rx="60"/><path fill="#242938" fill-rule="evenodd" d="M203.819 68.8354L140.679 31.3552C133.143 26.8816 123.854 26.8816 116.318 31.3552L53.1774 68.8354C45.6434 73.3091 41 81.575 41 90.5223V165.483C41 174.428 45.6434 182.698 53.1796 187.172L116.32 224.645C120.088 226.883 124.29 227.999 128.499 227.999C132.706 227.999 136.909 226.883 140.677 224.645L203.817 187.172C211.353 182.698 215.999 174.428 215.999 165.483V90.5223C215.999 81.575 211.353 73.3091 203.819 68.8354Z" clip-rule="evenodd"/><path fill="#fff" fill-rule="evenodd" d="M118.527 220.808L55.3866 183.334C49.2108 179.668 45.3744 172.828 45.3744 165.482V90.5234C45.3744 83.1768 49.2109 76.3374 55.3844 72.673L118.527 35.1928C121.554 33.3958 125.002 32.4455 128.499 32.4455C131.994 32.4455 135.442 33.3958 138.472 35.1928L201.612 72.673C206.816 75.7619 210.326 81.1109 211.313 87.1103C209.219 82.6411 204.496 81.4262 198.993 84.6409L139.259 121.537C131.811 125.891 126.319 130.777 126.314 139.758V213.362C126.31 218.74 128.482 222.223 131.818 223.233C130.722 223.423 129.617 223.555 128.499 223.555C125.002 223.555 121.554 222.605 118.527 220.808ZM203.819 68.8343L140.679 31.3563C136.911 29.1184 132.704 28.0005 128.499 28.0005C124.293 28.0005 120.086 29.1184 116.318 31.3563L53.1774 68.8343C45.6434 73.308 41 81.5761 41 90.5234V165.482C41 174.427 45.6434 182.697 53.1796 187.171L116.32 224.646C120.09 226.882 124.293 228 128.499 228C132.706 228 136.909 226.882 140.677 224.646L203.819 187.171C211.355 182.697 215.999 174.427 215.999 165.482V90.5234C215.999 81.5761 211.355 73.308 203.819 68.8343Z" clip-rule="evenodd"/><path fill="#47B353" fill-rule="evenodd" d="M187.267 172.729L171.545 182.139C171.128 182.382 170.822 182.655 170.819 183.156V187.27C170.819 187.773 171.157 187.982 171.573 187.737L187.539 178.034C187.955 177.791 188.019 177.326 188.022 176.825V173.196C188.022 172.696 187.684 172.486 187.267 172.729Z" clip-rule="evenodd"/><path fill="#242938" fill-rule="evenodd" d="M153.788 138.098C154.297 137.84 154.716 138.157 154.723 138.823L154.776 144.262C157.053 143.356 159.031 143.114 160.823 143.528C161.212 143.632 161.384 144.161 161.225 144.789L160.028 149.609C159.935 149.973 159.73 150.341 159.483 150.57C159.379 150.672 159.273 150.751 159.168 150.804C159.007 150.886 158.848 150.912 158.696 150.881C157.878 150.696 155.933 150.271 152.873 151.821C149.663 153.446 148.54 156.235 148.562 158.305C148.589 160.777 149.857 161.526 154.235 161.601C160.069 161.698 162.59 164.247 162.651 170.123C162.711 175.893 159.631 182.089 154.919 185.886L155.023 191.27C155.029 191.918 154.608 192.661 154.099 192.919L150.91 194.756C150.399 195.014 149.98 194.696 149.973 194.048L149.918 188.752C147.187 189.887 144.419 190.161 142.651 189.451C142.318 189.321 142.175 188.829 142.307 188.269L143.463 183.401C143.555 183.017 143.758 182.633 144.034 182.389C144.131 182.294 144.232 182.221 144.333 182.17C144.516 182.078 144.695 182.058 144.847 182.115C146.752 182.757 149.189 182.457 151.532 181.271C154.509 179.765 156.5 176.729 156.469 173.713C156.44 170.976 154.959 169.839 151.356 169.812C146.77 169.825 142.495 168.921 142.424 162.17C142.367 156.612 145.257 150.828 149.832 147.171L149.775 141.736C149.768 141.068 150.176 140.333 150.701 140.069L153.788 138.098Z" clip-rule="evenodd"/>
  </svg>
  <svg x="250" y="96" width="64" height="64" viewBox="0 0 256 256" fill="none" role="img" aria-labelledby="stack-icon-11">
    <title id="stack-icon-11">Git</title>
    <rect width="256" height="256" fill="#F03C2E" rx="60"/><g clip-path="url(#stack-11-clip0_7_283)"><path fill="#fff" d="M224.225 119.094L136.906 31.775C135.711 30.5787 134.291 29.6298 132.729 28.9824C131.166 28.3349 129.491 28.0017 127.8 28.0017C126.109 28.0017 124.434 28.3349 122.871 28.9824C121.309 29.6298 119.889 30.5787 118.694 31.775L100.569 49.9L123.569 72.9C128.919 71.025 135.044 72.3062 139.306 76.5687C141.335 78.6014 142.752 81.1638 143.394 83.9632C144.036 86.7626 143.878 89.6862 142.937 92.4L165.106 114.569C170.469 112.719 176.656 113.912 180.937 118.206C182.361 119.63 183.49 121.32 184.26 123.18C185.03 125.04 185.426 127.033 185.426 129.046C185.425 131.059 185.029 133.052 184.258 134.912C183.487 136.771 182.358 138.461 180.934 139.884C179.511 141.308 177.821 142.436 175.961 143.206C174.101 143.977 172.108 144.373 170.095 144.372C168.082 144.372 166.088 143.975 164.229 143.205C162.369 142.434 160.679 141.305 159.256 139.881C154.756 135.381 153.644 128.756 155.919 123.212L135.244 102.537V156.944C136.745 157.686 138.116 158.666 139.306 159.844C140.729 161.267 141.858 162.956 142.629 164.816C143.399 166.675 143.795 168.668 143.795 170.681C143.795 172.694 143.399 174.687 142.629 176.546C141.858 178.406 140.729 180.096 139.306 181.519C137.883 182.942 136.193 184.071 134.334 184.841C132.474 185.611 130.481 186.008 128.469 186.008C126.456 186.008 124.463 185.611 122.604 184.841C120.744 184.071 119.054 182.942 117.631 181.519C116.206 180.096 115.076 178.407 114.305 176.548C113.533 174.688 113.136 172.694 113.136 170.681C113.136 168.668 113.533 166.675 114.305 164.815C115.076 162.955 116.206 161.266 117.631 159.844C119.112 158.369 120.756 157.25 122.65 156.5V101.587C120.825 100.837 119.112 99.7312 117.631 98.2437C115.479 96.0943 114.016 93.3526 113.428 90.3684C112.841 87.3841 113.155 84.2924 114.331 81.4875L91.6437 58.8125L31.7687 118.625C30.5716 119.821 29.6219 121.241 28.9739 122.804C28.3259 124.367 27.9924 126.042 27.9924 127.734C27.9924 129.426 28.3259 131.102 28.9739 132.665C29.6219 134.228 30.5716 135.648 31.7687 136.844L119.094 224.156C120.289 225.352 121.709 226.301 123.271 226.949C124.834 227.596 126.509 227.929 128.2 227.929C129.891 227.929 131.566 227.596 133.129 226.949C134.691 226.301 136.111 225.352 137.306 224.156L224.225 137.375C225.422 136.179 226.372 134.759 227.02 133.196C227.668 131.633 228.001 129.958 228.001 128.266C228.001 126.574 227.668 124.898 227.02 123.335C226.372 121.772 225.422 120.352 224.225 119.156"/></g><defs><clipPath id="stack-11-clip0_7_283"><rect width="200" height="200" fill="#fff" transform="translate(28 28)"/></clipPath></defs>
  </svg>
  <svg x="326" y="96" width="64" height="64" viewBox="0 0 256 256" fill="none" role="img" aria-labelledby="stack-icon-12">
    <title id="stack-icon-12">MongoDB</title>
    <rect width="256" height="256" fill="#023430" rx="60"/><path fill="#10AA50" d="M171.173 107.591C160.636 61.1097 138.676 48.7357 133.074 39.9886C130.764 36.1353 128.717 32.1299 126.949 28C126.653 32.1292 126.109 34.7307 122.599 37.862C115.552 44.1454 85.6217 68.5354 83.1028 121.348C80.756 170.59 119.303 200.953 124.395 204.092C128.311 206.019 133.08 204.133 135.407 202.364C153.988 189.612 179.376 155.614 171.193 107.591"/><path fill="#B8C4C2" d="M128.545 177.871C127.575 190.059 126.88 197.141 124.416 204.106C124.416 204.106 126.033 215.709 127.169 228H131.188C132.147 219.345 133.61 210.753 135.572 202.268C130.369 199.708 128.745 188.566 128.545 177.871Z"/><path fill="#12924F" d="M135.565 202.275C130.307 199.846 128.786 188.469 128.552 177.871C129.852 160.388 130.231 142.849 129.688 125.326C129.412 116.132 129.818 40.1676 127.423 29.0461C129.062 32.8129 130.949 36.4662 133.074 39.9818C138.676 48.7358 160.643 61.1097 171.173 107.591C179.376 155.532 154.126 189.44 135.565 202.275Z"/>
  </svg>
  <svg x="402" y="96" width="64" height="64" viewBox="0 0 256 256" fill="none" role="img" aria-labelledby="stack-icon-13">
    <title id="stack-icon-13">PostgreSQL</title>
    <rect width="256" height="256" fill="#242938" rx="60"/><path fill="#336791" d="M203.48 148.688C183.16 152.878 181.684 145.995 181.684 145.995C203.15 114.143 212.129 73.7134 204.38 63.8204C183.259 36.8204 146.689 49.5962 146.077 49.9266L145.88 49.9618C141.414 49.0656 136.873 48.5924 132.317 48.5485C123.12 48.4079 116.145 50.9602 110.844 54.9751C110.844 54.9751 45.6078 28.1016 48.6453 88.7743C49.2922 101.684 67.1375 186.509 88.4422 160.845C96.2891 151.409 103.812 143.484 103.812 143.484C107.539 145.966 112.018 147.232 116.708 146.775L117.073 146.466C116.966 147.681 117.016 148.905 117.221 150.108C111.737 156.239 113.354 157.315 102.385 159.572C91.2898 161.857 97.8148 165.928 102.062 166.997C107.223 168.291 119.162 170.119 127.234 158.827L126.91 160.113C129.062 161.836 130.566 171.314 130.313 179.906C130.06 188.499 129.891 194.391 131.579 199.003C133.266 203.616 134.954 213.98 149.368 210.956C161.413 208.376 167.649 201.675 168.528 190.524C169.147 182.592 170.539 183.759 170.638 176.672L171.763 173.311C173.049 162.553 171.973 159.087 179.391 160.704L181.198 160.866C186.662 161.112 193.813 159.987 198.003 158.039C207.038 153.849 212.396 146.845 203.487 148.688H203.48Z"/><path stroke="#fff" stroke-linecap="round" stroke-linejoin="round" stroke-width="5.034" d="M146.07 48.5961C143.82 49.2993 182.38 34.4985 204.303 62.504C212.038 72.3969 203.073 112.827 181.606 144.678M128.098 153.784C127.536 173.795 128.239 193.946 130.194 198.784C132.148 203.621 136.346 213.198 150.767 210.118C162.812 207.538 167.199 202.538 169.098 191.506L173.548 156.231L128.098 153.784ZM110.816 53.4688C110.816 53.4688 45.5375 26.7782 48.575 87.4508C49.2219 100.36 67.0672 185.185 88.3719 159.521C96.1484 150.148 103.18 142.815 103.18 142.815L110.816 53.4688Z"/><path stroke="#fff" stroke-linecap="round" stroke-linejoin="bevel" stroke-width="5.034" d="M181.613 144.664C181.613 144.664 183.02 151.555 203.41 147.35C212.319 145.508 206.954 152.511 197.926 156.702C190.515 160.147 173.893 161.026 173.619 156.28C172.916 144.01 182.366 147.737 181.684 144.664C181.065 141.894 176.832 139.18 174.048 132.402C171.608 126.495 140.579 81.1438 182.654 87.8727C184.201 87.5563 171.685 47.7946 132.31 47.2181C92.9352 46.6415 94.1797 95.6282 94.1797 95.6282"/><path stroke="#fff" stroke-linejoin="round" stroke-width="5.034" d="M117.08 148.869C111.596 155 113.213 156.076 102.245 158.333C91.1492 160.618 97.6742 164.689 101.921 165.758C107.082 167.052 119.021 168.88 127.093 157.58C129.554 154.135 127.079 148.651 123.704 147.259C122.073 146.584 119.893 145.74 117.095 148.876L117.08 148.869Z"/><path stroke="#fff" stroke-linecap="round" stroke-linejoin="round" stroke-width="5.034" d="M116.722 148.763C116.159 145.156 117.903 140.874 119.766 135.854C122.565 128.331 129.02 120.807 123.859 96.9219C120.013 79.1329 94.1867 93.2165 94.1867 95.6282C94.1867 98.0399 95.3539 107.863 93.7648 119.288C91.6766 134.209 103.257 146.823 116.588 145.536"/><path fill="#fff" stroke="#fff" stroke-width="1.68" d="M110.577 95.2695C110.457 96.0922 112.088 98.293 114.205 98.5883C116.321 98.8836 118.128 97.168 118.248 96.3383C118.367 95.5086 116.736 94.6086 114.62 94.3133C112.503 94.018 110.682 94.4539 110.577 95.2695V95.2695Z"/><path fill="#fff" stroke="#fff" stroke-width=".837" d="M175.011 93.5891C175.123 94.4118 173.499 96.6125 171.383 96.9079C169.266 97.2032 167.445 95.4875 167.34 94.6579C167.234 93.8282 168.852 92.9282 170.968 92.6329C173.084 92.3375 174.905 92.7735 175.011 93.5891Z"/><path stroke="#fff" stroke-linecap="round" stroke-linejoin="round" stroke-width="5.034" d="M182.577 87.8867C182.928 94.3555 181.184 98.75 180.959 105.634C180.636 115.632 185.727 127.079 178.055 138.54"/>
  </svg>
  <svg x="478" y="96" width="64" height="64" viewBox="0 0 256 256" fill="none" role="img" aria-labelledby="stack-icon-14">
    <title id="stack-icon-14">Unreal Engine</title>
    <rect width="256" height="256" fill="#0E1128" rx="60"/><path fill="#fff" fill-rule="evenodd" d="M191.143 143.122C189.324 151.847 181.238 174.244 155.447 186.37L145.092 174.776L127.616 192.265C117.672 192.132 107.894 189.712 99.0459 185.194C90.1974 180.676 82.5184 174.182 76.6089 166.22C78.465 166.796 80.382 167.155 82.3213 167.291C85.184 167.343 88.2815 166.298 88.2815 161.513V114.319C88.3217 113.106 88.0766 111.9 87.5657 110.798C87.0548 109.696 86.2923 108.728 85.339 107.971C84.3857 107.214 83.2679 106.69 82.0748 106.439C80.8818 106.189 79.6465 106.22 78.4674 106.529C70.3749 108.385 63.9126 128.484 63.9126 128.484C63.8219 119.204 65.7623 110.017 69.599 101.559C73.4357 93.1019 79.0766 85.5779 86.1296 79.5103C95.4128 71.5166 106.777 66.298 118.91 64.4561C110.075 69.4676 105.112 77.6407 105.112 84.4959C105.112 95.5318 111.79 94.1945 113.765 92.5716V156.268C114.102 157.067 114.54 157.82 115.07 158.508C115.952 159.723 117.114 160.711 118.459 161.389C119.803 162.066 121.29 162.414 122.797 162.403C129.481 162.403 138.154 154.807 138.154 154.807V103.25C138.154 98.0051 134.183 91.6692 130.205 89.4945C130.205 89.4945 137.567 88.1962 143.247 92.5261C144.314 91.2285 145.448 89.9869 146.644 88.8064C159.901 75.8555 172.389 72.1682 182.79 70.3245C182.79 70.3245 163.879 85.1191 163.879 104.971C163.879 119.733 164.264 155.736 164.264 155.736C171.28 162.481 181.714 152.737 191.143 143.122Z" clip-rule="evenodd"/><path fill="#fff" fill-rule="evenodd" d="M128.47 23C107.61 23 87.2186 29.1579 69.8741 40.6951C52.5296 52.2323 39.0113 68.6306 31.0285 87.8162C23.0457 107.002 20.957 128.113 25.0266 148.481C29.0962 168.848 39.1413 187.557 53.8915 202.241C68.6418 216.925 87.4348 226.925 107.894 230.976C128.353 235.027 149.56 232.948 168.832 225.001C188.104 217.054 204.576 203.596 216.165 186.33C227.755 169.063 233.94 148.763 233.94 127.997C233.94 100.15 222.828 73.4435 203.049 53.7528C183.269 34.0621 156.443 23 128.47 23V23ZM128.47 228.787C108.444 228.787 88.8682 222.875 72.2174 211.799C55.5666 200.723 42.589 184.98 34.9258 166.562C27.2625 148.143 25.2578 127.876 29.1651 108.323C33.0724 88.7706 42.7163 70.8104 56.8772 56.714C71.0381 42.6176 89.0799 33.0181 108.721 29.1296C128.362 25.2411 148.721 27.2381 167.222 34.8682C185.723 42.4982 201.536 55.4186 212.661 71.9953C223.785 88.5721 229.723 108.061 229.721 127.997C229.721 154.73 219.054 180.368 200.066 199.271C181.077 218.174 155.324 228.793 128.47 228.793V228.787Z" clip-rule="evenodd"/>
  </svg>
  <svg x="554" y="96" width="64" height="64" viewBox="0 0 256 256" fill="none" role="img" aria-labelledby="stack-icon-15">
    <title id="stack-icon-15">Cloudflare</title>
    <rect width="256" height="256" fill="#242938" rx="60"/><g clip-path="url(#stack-15-clip0_4_272)"><path fill="#fff" d="M79 171.75H211.356V135.125L186.212 120.706L181.875 118.831L79 119.537V171.75Z"/><path fill="#F38020" d="M165.575 166.887C166.806 162.669 166.338 158.8 164.288 155.925C162.413 153.287 159.244 151.762 155.438 151.587L83.2813 150.65C82.8125 150.65 82.4063 150.412 82.1688 150.062C81.9313 149.712 81.875 149.25 81.9938 148.775C82.2313 148.069 82.9313 147.544 83.6938 147.487L156.494 146.55C165.119 146.137 174.494 139.162 177.769 130.612L181.931 119.769C182.115 119.323 182.158 118.833 182.056 118.362C177.369 97.1437 158.431 81.3187 135.806 81.3187C114.931 81.3187 97.2438 94.8 90.9063 113.506C86.8 110.456 81.5313 108.819 75.9563 109.344C65.9313 110.344 57.8313 118.369 56.9063 128.394C56.6634 130.887 56.8408 133.403 57.4313 135.837C49.5447 136.051 42.0537 139.337 36.5556 144.995C31.0574 150.653 27.9874 158.236 28 166.125C28 167.587 28.125 169.062 28.2938 170.519C28.4188 171.225 29 171.75 29.7 171.75H162.875C163.258 171.743 163.629 171.614 163.934 171.383C164.24 171.151 164.464 170.829 164.575 170.462L165.575 166.887V166.887Z"/><path fill="#FAAE40" d="M188.55 120.519L186.55 120.581C186.081 120.581 185.675 120.931 185.487 121.394L182.675 131.181C181.444 135.4 181.912 139.269 183.962 142.144C185.837 144.781 189.006 146.306 192.812 146.481L208.169 147.419C208.637 147.419 209.044 147.656 209.281 148.006C209.519 148.356 209.575 148.881 209.456 149.294C209.219 150 208.519 150.525 207.756 150.581L191.756 151.519C183.081 151.931 173.756 158.906 170.481 167.456L169.306 170.444C169.069 171.031 169.481 171.619 170.119 171.619H225.1C225.418 171.623 225.729 171.522 225.983 171.331C226.238 171.14 226.422 170.869 226.506 170.562C227.481 167.096 227.983 163.513 228 159.912C227.97 149.465 223.802 139.454 216.409 132.072C209.015 124.69 198.998 120.538 188.55 120.525"/></g><defs><clipPath id="stack-15-clip0_4_272"><rect width="200" height="200" fill="#fff" transform="translate(28 28)"/></clipPath></defs>
  </svg>
</svg>
